<?xml version="1.0" standalone="no"?><!DOCTYPE svg PUBLIC "-//W3C//DTD SVG 1.1//EN" "http://www.w3.org/Graphics/SVG/1.1/DTD/svg11.dtd"><svg t="1641384768812" class="icon" viewBox="0 0 1024 1024" version="1.1" xmlns="http://www.w3.org/2000/svg" p-id="51211" xmlns:xlink="http://www.w3.org/1999/xlink" width="200" height="200"><defs><style type="text/css"></style></defs><path d="M315.904 162.304h392.192v39.936H315.904z" p-id="51212" fill="#ffffff"></path><path d="M728.576 856.064H294.912V162.816v-5.632c0-2.048 0.512-4.096 1.024-6.144 10.24-56.832 100.352-97.792 216.064-97.792 116.224 0 206.848 41.472 216.064 98.304 0.512 2.048 1.024 4.096 1.024 6.144v3.584l-0.512 694.784z m-393.728-39.936h353.792V158.72c-4.096-31.232-77.824-65.536-176.64-65.536S339.456 127.488 335.36 158.72v3.584l-0.512 653.824z m0-653.824z m353.792-5.12z" p-id="51213" fill="#ffffff"></path><path d="M512 968.192c-115.712 0-205.824-40.96-216.064-98.304-0.512-2.048-1.024-4.096-1.024-6.144v-2.56V180.736h39.936v681.472c4.096 31.232 77.824 66.048 176.64 66.048s172.544-34.816 176.64-66.048v-2.56V181.248h39.936v682.496c0 2.048-0.512 4.096-1.024 6.144-8.192 56.832-98.816 98.304-215.04 98.304z m-177.152-104.448z" p-id="51214" fill="#ffffff"></path></svg>