<?xml version="1.0" standalone="no"?><!DOCTYPE svg PUBLIC "-//W3C//DTD SVG 1.1//EN" "http://www.w3.org/Graphics/SVG/1.1/DTD/svg11.dtd"><svg t="1641384389198" class="icon" viewBox="0 0 1024 1024" version="1.1" xmlns="http://www.w3.org/2000/svg" p-id="28109" xmlns:xlink="http://www.w3.org/1999/xlink" width="200" height="200"><defs><style type="text/css"></style></defs><path d="M512 120a8 8 0 0 1 8-8h304a8 8 0 0 1 8 8v48a8 8 0 0 1-8 8H520a8 8 0 0 1-8-8v-48zM512 856a8 8 0 0 1 8-8h304a8 8 0 0 1 8 8v48a8 8 0 0 1-8 8H520a8 8 0 0 1-8-8v-48z" p-id="28110" fill="#ffffff"></path><path d="M640 172h64v692h-64V172zM576 256H80c-8.837 0-16 7.163-16 16v480c0 8.837 7.163 16 16 16h496a8 8 0 0 0 8-8v-56a8 8 0 0 0-8-8H136V328h440a8 8 0 0 0 8-8v-56a8 8 0 0 0-8-8z m194 440h118V328H770v-0.252c-3.45-0.888-6-4.02-6-7.748v-56c0-3.728 2.55-6.86 6-7.748V256h174c8.837 0 16 7.163 16 16v480c0 8.837-7.163 16-16 16H770a8 8 0 0 1-8-8v-56a8 8 0 0 1 8-8z" p-id="28111" fill="#ffffff"></path></svg>