<?xml version="1.0" standalone="no"?><!DOCTYPE svg PUBLIC "-//W3C//DTD SVG 1.1//EN" "http://www.w3.org/Graphics/SVG/1.1/DTD/svg11.dtd"><svg t="1641384027829" class="icon" viewBox="0 0 1024 1024" version="1.1" xmlns="http://www.w3.org/2000/svg" p-id="12378" xmlns:xlink="http://www.w3.org/1999/xlink" width="200" height="200"><defs><style type="text/css"></style></defs><path d="M956.9 383.4c-3.2 0.4-6.4 0.6-9.7 0.6-39.9 0-72.7-30.5-76.4-69.4L147.4 107.2c-8.9 20.5-26.4 36.4-48 43.1l75.7 720.3c1.4-0.1 2.7-0.1 4.1-0.1 39.7 0 72.3 30.1 76.4 68.7l615.7-108.6c-0.5-3.7-0.8-7.5-0.8-11.3 0-42.4 34.4-76.8 76.8-76.8 3.3 0 6.5 0.2 9.7 0.6V383.4z m25.6-8V751c24.7 12.8 41.5 38.5 41.5 68.2 0 42.4-34.4 76.8-76.8 76.8-29.4 0-55-16.6-67.9-40.9L253.8 965.4c-8.2 33.6-38.5 58.6-74.6 58.6-42.4 0-76.8-34.4-76.8-76.8 0-32 19.6-59.5 47.5-71L74 153.5C32.9 152 0 118.2 0 76.8 0 34.4 34.4 0 76.8 0s76.8 34.4 76.8 76.8c0 1.8-0.1 3.7-0.2 5.5l719.3 206.2c8.3-33.4 38.5-58.1 74.5-58.1 42.4 0 76.8 34.4 76.8 76.8 0 29.7-16.9 55.5-41.5 68.2z" p-id="12379" fill="#ffffff"></path></svg>